# Blender 4.1.1
# www.blender.org
mtllib terrainTest.mtl
o Plane
v -13.349239 2.865452 13.617859
v 13.318501 2.865452 13.617859
v -13.349239 2.865450 -13.049881
v 13.318501 2.865450 -13.049881
v -13.349239 3.067607 0.283989
v -0.015369 3.067608 13.617859
v 13.318501 3.067607 0.283989
v -0.015369 3.067606 -13.049881
v -0.015369 6.401208 0.283989
v -0.015369 5.985868 3.617456
v 3.318098 5.985868 0.283989
v -0.015369 5.985868 -3.049479
v -3.348837 5.985868 0.283989
v -13.349239 3.050421 -1.382744
v -1.682103 3.050422 13.617859
v 13.318501 3.050421 1.950723
v 1.651364 3.050420 -13.049881
v -0.015369 6.288749 1.950723
v 1.651364 6.288749 0.283989
v -0.015369 5.544313 -4.716212
v -5.015570 5.544314 0.283989
v -0.015369 5.544314 5.284191
v 4.984832 5.544314 0.283989
v -13.349239 3.050421 1.950723
v 1.651364 3.050422 13.617859
v 13.318501 3.050421 -1.382744
v -1.682103 3.050420 -13.049881
v -0.015369 6.288749 -1.382744
v -1.682103 6.288749 0.283989
v 3.318098 5.892213 -1.382744
v 1.651364 5.892213 -3.049479
v -3.348837 5.892213 -1.382744
v -1.682103 5.892213 -3.049479
v 3.318098 5.892213 1.950723
v 1.651364 5.892213 3.617456
v -3.348837 5.892213 1.950723
v -1.682103 5.892213 3.617456
v 1.651364 6.183434 1.950723
v -1.682103 6.183434 -1.382744
v 1.651364 6.183434 -1.382744
v -1.682103 6.183434 1.950723
vn -0.0000 0.9925 0.1219
vn -0.1219 0.9925 -0.0000
vn -0.1092 0.9880 0.1092
vn -0.1092 0.9880 -0.1092
vn -0.0000 0.9776 -0.2103
vn -0.0741 0.9781 -0.1943
vn 0.1092 0.9880 0.1092
vn 0.2103 0.9776 -0.0000
vn 0.1219 0.9925 -0.0000
vn -0.0000 1.0000 -0.0000
vn -0.0000 0.9776 0.2103
vn -0.2103 0.9776 -0.0000
vn -0.1943 0.9781 -0.0741
vn -0.0000 0.9925 -0.1219
vn 0.1092 0.9880 -0.1092
vn -0.1943 0.9781 0.0741
vn -0.0741 0.9781 0.1943
vn -0.0000 -1.0000 -0.0000
vn -1.0000 -0.0000 -0.0000
vn -0.9365 0.3507 0.0036
vn -0.7996 0.6005 -0.0000
vn -0.2998 0.9539 -0.0098
vn -0.2839 0.9587 -0.0152
vn -0.2561 0.9667 -0.0000
vn -0.1434 0.9792 -0.1434
vn -0.0000 0.9667 -0.2561
vn -0.0152 0.9587 -0.2839
vn -0.0099 0.9565 -0.2917
vn -0.0000 0.6005 -0.7996
vn 0.0099 0.9565 -0.2917
vn -0.0000 -0.0000 -1.0000
vn -0.0152 0.9587 0.2839
vn -0.0000 0.9667 0.2561
vn -0.1434 0.9792 0.1434
vn -0.2839 0.9587 0.0152
vn -0.0000 -0.0000 1.0000
vn 0.0036 0.3507 0.9365
vn -0.0000 0.6005 0.7996
vn -0.0098 0.9539 0.2998
vn -0.2849 0.9586 -0.0000
vn 0.0741 0.9781 -0.1943
vn 0.1434 0.9792 -0.1434
vn 0.0152 0.9587 -0.2839
vn -0.0000 0.9586 -0.2849
vn 0.1943 0.9781 -0.0741
vn 0.2561 0.9667 -0.0000
vn 0.2839 0.9587 -0.0152
vn 0.2917 0.9565 -0.0099
vn 0.7996 0.6005 -0.0000
vn 0.2917 0.9565 0.0099
vn 1.0000 -0.0000 -0.0000
vn -0.0000 0.9586 0.2849
vn 0.0152 0.9587 0.2839
vn 0.1434 0.9792 0.1434
vn 0.0741 0.9781 0.1943
vn 0.2839 0.9587 0.0152
vn 0.1943 0.9781 0.0741
vn 0.2849 0.9586 -0.0000
vt 0.500000 0.437500
vt 0.437500 0.500000
vt 0.437500 0.437500
vt 0.437500 0.562500
vt 0.500000 0.625000
vt 0.437500 0.625000
vt 0.562500 0.437500
vt 0.625000 0.500000
vt 0.562500 0.500000
vt 0.500000 0.500000
vt 0.500000 0.375000
vt 0.375000 0.500000
vt 0.375000 0.562500
vt 0.500000 0.562500
vt 0.562500 0.562500
vt 0.375000 0.437500
vt 0.437500 0.375000
vt 0.000000 0.000000
vt 0.000000 0.437500
vt 0.000000 0.500000
vt 0.000000 0.562500
vt 0.312500 0.500000
vt 0.500000 0.687500
vt 0.437500 1.000000
vt 0.500000 1.000000
vt 0.562500 1.000000
vt 0.500000 0.312500
vt 0.562500 0.000000
vt 0.500000 0.000000
vt 0.437500 0.000000
vt 0.562500 0.625000
vt 0.625000 0.562500
vt 0.687500 0.500000
vt 1.000000 0.562500
vt 1.000000 0.500000
vt 1.000000 0.437500
vt 0.562500 0.375000
vt 0.625000 0.437500
s 1
f 18/1/1 29/2/2 41/3/3
f 39/4/4 12/5/5 33/6/6
f 38/7/7 11/8/8 19/9/9
f 18/1/1 19/9/9 9/10/10
f 10/11/11 38/7/7 18/1/1
f 13/12/12 39/4/4 32/13/13
f 29/2/2 28/14/14 39/4/4
f 40/15/15 12/5/5 28/14/14
f 19/9/9 28/14/14 9/10/10
f 11/8/8 40/15/15 19/9/9
f 41/3/3 13/12/12 36/16/16
f 10/11/11 41/3/3 37/17/17
s 0
f 3/18/18 2/18/18 1/18/18
s 1
f 1/18/19 24/19/20 5/20/21
f 1/18/19 5/20/21 14/21/22
s 0
f 1/18/19 14/21/19 3/18/19
f 14/21/23 21/18/23 3/18/23
s 1
f 21/22/24 13/12/12 3/18/25
f 13/12/12 32/13/13 3/18/25
f 32/13/13 39/4/4 3/18/25
f 39/4/4 33/6/6 3/18/25
f 33/6/6 12/5/5 3/18/25
f 12/5/5 20/23/26 3/18/25
s 0
f 20/23/27 27/18/27 3/18/27
s 1
f 27/24/28 8/25/29 17/26/30
s 0
f 27/24/31 17/26/31 4/18/31
f 27/24/31 4/18/31 3/18/31
f 15/18/32 22/18/32 1/18/32
s 1
f 22/27/33 10/11/11 1/18/34
f 10/11/11 37/17/17 1/18/34
f 37/17/17 41/3/3 1/18/34
f 41/3/3 36/16/16 1/18/34
f 36/16/16 13/12/12 1/18/34
f 13/12/12 21/22/24 1/18/34
s 0
f 21/22/35 24/19/35 1/18/35
s 1
f 2/18/36 25/28/37 6/29/38
f 2/18/36 6/29/38 15/30/39
s 0
f 2/18/36 15/30/36 1/18/36
s 1
f 5/20/21 21/18/40 14/21/22
f 5/20/21 24/19/20 21/22/40
f 31/31/41 4/18/42 12/5/5
f 4/18/42 20/23/26 12/5/5
s 0
f 4/18/43 17/26/43 20/23/43
s 1
f 17/26/30 8/25/29 20/23/44
f 8/25/29 27/24/28 20/23/44
f 31/31/41 40/15/15 4/18/42
f 40/15/15 30/32/45 4/18/42
f 30/32/45 11/8/8 4/18/42
f 11/8/8 23/33/46 4/18/42
s 0
f 23/33/47 26/18/47 4/18/47
s 1
f 26/34/48 7/35/49 16/36/50
s 0
f 26/34/51 16/36/51 2/18/51
f 26/34/51 2/18/51 4/18/51
s 1
f 6/29/38 22/18/52 15/18/39
f 6/29/38 25/28/37 22/18/52
s 0
f 25/28/53 2/18/53 22/18/53
s 1
f 2/18/54 10/11/11 22/27/33
f 2/18/54 35/37/55 10/11/11
s 0
f 16/36/56 23/18/56 2/18/56
s 1
f 23/33/46 11/8/8 2/18/54
f 11/8/8 34/38/57 2/18/54
f 34/38/57 38/7/7 2/18/54
f 38/7/7 35/37/55 2/18/54
f 16/36/50 7/35/49 23/18/58
f 7/35/49 26/34/48 23/33/58
f 18/1/1 9/10/10 29/2/2
f 39/4/4 28/14/14 12/5/5
f 38/7/7 34/38/57 11/8/8
f 18/1/1 38/7/7 19/9/9
f 10/11/11 35/37/55 38/7/7
f 13/12/12 29/2/2 39/4/4
f 29/2/2 9/10/10 28/14/14
f 40/15/15 31/31/41 12/5/5
f 19/9/9 40/15/15 28/14/14
f 11/8/8 30/32/45 40/15/15
f 41/3/3 29/2/2 13/12/12
f 10/11/11 18/1/1 41/3/3
s 0
f 3/18/18 4/18/18 2/18/18
