{
	"asset":{
		"generator":"Khronos glTF Blender I/O v4.3.47",
		"version":"2.0"
	},
	"scene":0,
	"scenes":[
		{
			"name":"Scene",
			"nodes":[
				0,
				1,
				2,
				3,
				4,
				5,
				6,
				7,
				8,
				9,
				10,
				11
			]
		}
	],
	"nodes":[
		{
			"mesh":0,
			"name":"defaultMaterial",
			"scale":[
				0.2612825632095337,
				0.26128262281417847,
				0.26128262281417847
			],
			"translation":[
				299.0126953125,
				0,
				102.513916015625
			]
		},
		{
			"mesh":1,
			"name":"defaultMaterial.006",
			"scale":[
				0.2612825632095337,
				0.26128262281417847,
				0.26128262281417847
			],
			"translation":[
				369.4013671875,
				0,
				102.513916015625
			]
		},
		{
			"mesh":2,
			"name":"defaultMaterial.012",
			"scale":[
				0.2612825632095337,
				0.26128262281417847,
				0.26128262281417847
			],
			"translation":[
				440.1441650390625,
				0,
				102.513916015625
			]
		},
		{
			"mesh":3,
			"name":"defaultMaterial.016",
			"scale":[
				0.2612825632095337,
				0.26128262281417847,
				0.26128262281417847
			],
			"translation":[
				440.1441650390625,
				0,
				249.13653564453125
			]
		},
		{
			"mesh":4,
			"name":"defaultMaterial.036",
			"scale":[
				0.2612825632095337,
				0.26128262281417847,
				0.26128262281417847
			],
			"translation":[
				440.1441650390625,
				0,
				175.0317840576172
			]
		},
		{
			"mesh":5,
			"name":"defaultMaterial.018",
			"scale":[
				0.2612825632095337,
				0.26128262281417847,
				0.26128262281417847
			],
			"translation":[
				510.5328369140625,
				0,
				102.513916015625
			]
		},
		{
			"mesh":6,
			"name":"defaultMaterial.019",
			"scale":[
				0.2612825632095337,
				0.26128262281417847,
				0.26128262281417847
			],
			"translation":[
				510.5328369140625,
				0,
				249.13653564453125
			]
		},
		{
			"mesh":7,
			"name":"defaultMaterial.042",
			"scale":[
				0.2612825632095337,
				0.26128262281417847,
				0.26128262281417847
			],
			"translation":[
				510.5328369140625,
				0,
				175.0317840576172
			]
		},
		{
			"mesh":8,
			"name":"defaultMaterial.010",
			"scale":[
				0.2612825632095337,
				0.26128262281417847,
				0.26128262281417847
			],
			"translation":[
				299.0126953125,
				0,
				249.1365203857422
			]
		},
		{
			"mesh":9,
			"name":"defaultMaterial.024",
			"scale":[
				0.2612825632095337,
				0.26128262281417847,
				0.26128262281417847
			],
			"translation":[
				299.0126953125,
				0,
				175.03176879882812
			]
		},
		{
			"mesh":10,
			"name":"defaultMaterial.015",
			"scale":[
				0.2612825632095337,
				0.26128262281417847,
				0.26128262281417847
			],
			"translation":[
				369.4013671875,
				0,
				249.1365203857422
			]
		},
		{
			"mesh":11,
			"name":"defaultMaterial.030",
			"scale":[
				0.2612825632095337,
				0.26128262281417847,
				0.26128262281417847
			],
			"translation":[
				369.4013671875,
				0,
				175.03176879882812
			]
		}
	],
	"materials":[
		{
			"doubleSided":true,
			"name":"1001",
			"pbrMetallicRoughness":{
				"baseColorFactor":[
					1,
					0,
					0,
					1
				],
				"metallicFactor":0,
				"roughnessFactor":0
			}
		},
		{
			"doubleSided":true,
			"name":"Material.001",
			"pbrMetallicRoughness":{
				"baseColorFactor":[
					1,
					0,
					0,
					1
				],
				"metallicFactor":0,
				"roughnessFactor":0.1818181872367859
			}
		},
		{
			"doubleSided":true,
			"name":"Material.002",
			"pbrMetallicRoughness":{
				"baseColorFactor":[
					1,
					0,
					0,
					1
				],
				"metallicFactor":0,
				"roughnessFactor":0.3954545557498932
			}
		},
		{
			"doubleSided":true,
			"name":"Material.010",
			"pbrMetallicRoughness":{
				"baseColorFactor":[
					1,
					0,
					0,
					1
				],
				"metallicFactor":0.7318181991577148,
				"roughnessFactor":0.13181817531585693
			}
		},
		{
			"doubleSided":true,
			"name":"Material.005",
			"pbrMetallicRoughness":{
				"baseColorFactor":[
					1,
					0,
					0,
					1
				],
				"metallicFactor":0,
				"roughnessFactor":0.8454545736312866
			}
		},
		{
			"doubleSided":true,
			"name":"Material.003",
			"pbrMetallicRoughness":{
				"baseColorFactor":[
					1,
					0,
					0,
					1
				],
				"metallicFactor":0,
				"roughnessFactor":0.5636363625526428
			}
		},
		{
			"doubleSided":true,
			"name":"Material.011",
			"pbrMetallicRoughness":{
				"baseColorFactor":[
					1,
					0,
					0.0014319031033664942,
					1
				],
				"roughnessFactor":0
			}
		},
		{
			"doubleSided":true,
			"name":"Material.004",
			"pbrMetallicRoughness":{
				"baseColorFactor":[
					1,
					0,
					0,
					1
				],
				"metallicFactor":0,
				"roughnessFactor":0.7090908885002136
			}
		},
		{
			"doubleSided":true,
			"name":"Material.008",
			"pbrMetallicRoughness":{
				"baseColorFactor":[
					1,
					0,
					0,
					1
				]
			}
		},
		{
			"doubleSided":true,
			"name":"Material.007",
			"pbrMetallicRoughness":{
				"baseColorFactor":[
					1,
					0,
					0,
					1
				],
				"metallicFactor":0
			}
		},
		{
			"doubleSided":true,
			"name":"Material.009",
			"pbrMetallicRoughness":{
				"baseColorFactor":[
					1,
					0,
					0,
					1
				],
				"metallicFactor":0.2818181812763214,
				"roughnessFactor":0.5
			}
		},
		{
			"doubleSided":true,
			"name":"Material.006",
			"pbrMetallicRoughness":{
				"baseColorFactor":[
					1,
					0,
					0,
					1
				],
				"metallicFactor":0,
				"roughnessFactor":0.9409090876579285
			}
		}
	],
	"meshes":[
		{
			"name":"defaultMaterial",
			"primitives":[
				{
					"attributes":{
						"POSITION":0,
						"NORMAL":1,
						"TEXCOORD_0":2
					},
					"indices":3,
					"material":0
				}
			]
		},
		{
			"name":"defaultMaterial.006",
			"primitives":[
				{
					"attributes":{
						"POSITION":4,
						"NORMAL":5,
						"TEXCOORD_0":6
					},
					"indices":3,
					"material":1
				}
			]
		},
		{
			"name":"defaultMaterial.012",
			"primitives":[
				{
					"attributes":{
						"POSITION":7,
						"NORMAL":8,
						"TEXCOORD_0":9
					},
					"indices":3,
					"material":2
				}
			]
		},
		{
			"name":"defaultMaterial.049",
			"primitives":[
				{
					"attributes":{
						"POSITION":10,
						"NORMAL":11,
						"TEXCOORD_0":12
					},
					"indices":3,
					"material":3
				}
			]
		},
		{
			"name":"defaultMaterial.036",
			"primitives":[
				{
					"attributes":{
						"POSITION":13,
						"NORMAL":14,
						"TEXCOORD_0":15
					},
					"indices":3,
					"material":4
				}
			]
		},
		{
			"name":"defaultMaterial.018",
			"primitives":[
				{
					"attributes":{
						"POSITION":16,
						"NORMAL":17,
						"TEXCOORD_0":18
					},
					"indices":3,
					"material":5
				}
			]
		},
		{
			"name":"defaultMaterial.050",
			"primitives":[
				{
					"attributes":{
						"POSITION":19,
						"NORMAL":20,
						"TEXCOORD_0":21
					},
					"indices":3,
					"material":6
				}
			]
		},
		{
			"name":"defaultMaterial.042",
			"primitives":[
				{
					"attributes":{
						"POSITION":22,
						"NORMAL":23,
						"TEXCOORD_0":24
					},
					"indices":3,
					"material":7
				}
			]
		},
		{
			"name":"defaultMaterial.047",
			"primitives":[
				{
					"attributes":{
						"POSITION":25,
						"NORMAL":26,
						"TEXCOORD_0":27
					},
					"indices":3,
					"material":8
				}
			]
		},
		{
			"name":"defaultMaterial.024",
			"primitives":[
				{
					"attributes":{
						"POSITION":28,
						"NORMAL":29,
						"TEXCOORD_0":30
					},
					"indices":3,
					"material":9
				}
			]
		},
		{
			"name":"defaultMaterial.048",
			"primitives":[
				{
					"attributes":{
						"POSITION":31,
						"NORMAL":32,
						"TEXCOORD_0":33
					},
					"indices":3,
					"material":10
				}
			]
		},
		{
			"name":"defaultMaterial.030",
			"primitives":[
				{
					"attributes":{
						"POSITION":34,
						"NORMAL":35,
						"TEXCOORD_0":36
					},
					"indices":3,
					"material":11
				}
			]
		}
	],
	"accessors":[
		{
			"bufferView":0,
			"componentType":5126,
			"count":21809,
			"max":[
				97.55665588378906,
				202.1883544921875,
				56.631103515625
			],
			"min":[
				-97.52574157714844,
				22.510086059570312,
				-113.55245971679688
			],
			"type":"VEC3"
		},
		{
			"bufferView":1,
			"componentType":5126,
			"count":21809,
			"type":"VEC3"
		},
		{
			"bufferView":2,
			"componentType":5126,
			"count":21809,
			"type":"VEC2"
		},
		{
			"bufferView":3,
			"componentType":5123,
			"count":106944,
			"type":"SCALAR"
		},
		{
			"bufferView":4,
			"componentType":5126,
			"count":21809,
			"max":[
				97.55665588378906,
				202.1883544921875,
				56.631103515625
			],
			"min":[
				-97.52574157714844,
				22.510086059570312,
				-113.55245971679688
			],
			"type":"VEC3"
		},
		{
			"bufferView":5,
			"componentType":5126,
			"count":21809,
			"type":"VEC3"
		},
		{
			"bufferView":6,
			"componentType":5126,
			"count":21809,
			"type":"VEC2"
		},
		{
			"bufferView":7,
			"componentType":5126,
			"count":21809,
			"max":[
				97.55665588378906,
				202.1883544921875,
				56.631103515625
			],
			"min":[
				-97.52574157714844,
				22.510086059570312,
				-113.55245971679688
			],
			"type":"VEC3"
		},
		{
			"bufferView":8,
			"componentType":5126,
			"count":21809,
			"type":"VEC3"
		},
		{
			"bufferView":9,
			"componentType":5126,
			"count":21809,
			"type":"VEC2"
		},
		{
			"bufferView":10,
			"componentType":5126,
			"count":21809,
			"max":[
				97.55665588378906,
				202.1883544921875,
				56.631103515625
			],
			"min":[
				-97.52574157714844,
				22.510086059570312,
				-113.55245971679688
			],
			"type":"VEC3"
		},
		{
			"bufferView":11,
			"componentType":5126,
			"count":21809,
			"type":"VEC3"
		},
		{
			"bufferView":12,
			"componentType":5126,
			"count":21809,
			"type":"VEC2"
		},
		{
			"bufferView":13,
			"componentType":5126,
			"count":21809,
			"max":[
				97.55665588378906,
				202.1883544921875,
				56.631103515625
			],
			"min":[
				-97.52574157714844,
				22.510086059570312,
				-113.55245971679688
			],
			"type":"VEC3"
		},
		{
			"bufferView":14,
			"componentType":5126,
			"count":21809,
			"type":"VEC3"
		},
		{
			"bufferView":15,
			"componentType":5126,
			"count":21809,
			"type":"VEC2"
		},
		{
			"bufferView":16,
			"componentType":5126,
			"count":21809,
			"max":[
				97.55665588378906,
				202.1883544921875,
				56.631103515625
			],
			"min":[
				-97.52574157714844,
				22.510086059570312,
				-113.55245971679688
			],
			"type":"VEC3"
		},
		{
			"bufferView":17,
			"componentType":5126,
			"count":21809,
			"type":"VEC3"
		},
		{
			"bufferView":18,
			"componentType":5126,
			"count":21809,
			"type":"VEC2"
		},
		{
			"bufferView":19,
			"componentType":5126,
			"count":21809,
			"max":[
				97.55665588378906,
				202.1883544921875,
				56.631103515625
			],
			"min":[
				-97.52574157714844,
				22.510086059570312,
				-113.55245971679688
			],
			"type":"VEC3"
		},
		{
			"bufferView":20,
			"componentType":5126,
			"count":21809,
			"type":"VEC3"
		},
		{
			"bufferView":21,
			"componentType":5126,
			"count":21809,
			"type":"VEC2"
		},
		{
			"bufferView":22,
			"componentType":5126,
			"count":21809,
			"max":[
				97.55665588378906,
				202.1883544921875,
				56.631103515625
			],
			"min":[
				-97.52574157714844,
				22.510086059570312,
				-113.55245971679688
			],
			"type":"VEC3"
		},
		{
			"bufferView":23,
			"componentType":5126,
			"count":21809,
			"type":"VEC3"
		},
		{
			"bufferView":24,
			"componentType":5126,
			"count":21809,
			"type":"VEC2"
		},
		{
			"bufferView":25,
			"componentType":5126,
			"count":21809,
			"max":[
				97.55665588378906,
				202.1883544921875,
				56.631103515625
			],
			"min":[
				-97.52574157714844,
				22.510086059570312,
				-113.55245971679688
			],
			"type":"VEC3"
		},
		{
			"bufferView":26,
			"componentType":5126,
			"count":21809,
			"type":"VEC3"
		},
		{
			"bufferView":27,
			"componentType":5126,
			"count":21809,
			"type":"VEC2"
		},
		{
			"bufferView":28,
			"componentType":5126,
			"count":21809,
			"max":[
				97.55665588378906,
				202.1883544921875,
				56.631103515625
			],
			"min":[
				-97.52574157714844,
				22.510086059570312,
				-113.55245971679688
			],
			"type":"VEC3"
		},
		{
			"bufferView":29,
			"componentType":5126,
			"count":21809,
			"type":"VEC3"
		},
		{
			"bufferView":30,
			"componentType":5126,
			"count":21809,
			"type":"VEC2"
		},
		{
			"bufferView":31,
			"componentType":5126,
			"count":21809,
			"max":[
				97.55665588378906,
				202.1883544921875,
				56.631103515625
			],
			"min":[
				-97.52574157714844,
				22.510086059570312,
				-113.55245971679688
			],
			"type":"VEC3"
		},
		{
			"bufferView":32,
			"componentType":5126,
			"count":21809,
			"type":"VEC3"
		},
		{
			"bufferView":33,
			"componentType":5126,
			"count":21809,
			"type":"VEC2"
		},
		{
			"bufferView":34,
			"componentType":5126,
			"count":21809,
			"max":[
				97.55665588378906,
				202.1883544921875,
				56.631103515625
			],
			"min":[
				-97.52574157714844,
				22.510086059570312,
				-113.55245971679688
			],
			"type":"VEC3"
		},
		{
			"bufferView":35,
			"componentType":5126,
			"count":21809,
			"type":"VEC3"
		},
		{
			"bufferView":36,
			"componentType":5126,
			"count":21809,
			"type":"VEC2"
		}
	],
	"bufferViews":[
		{
			"buffer":0,
			"byteLength":261708,
			"byteOffset":0,
			"target":34962
		},
		{
			"buffer":0,
			"byteLength":261708,
			"byteOffset":261708,
			"target":34962
		},
		{
			"buffer":0,
			"byteLength":174472,
			"byteOffset":523416,
			"target":34962
		},
		{
			"buffer":0,
			"byteLength":213888,
			"byteOffset":697888,
			"target":34963
		},
		{
			"buffer":0,
			"byteLength":261708,
			"byteOffset":911776,
			"target":34962
		},
		{
			"buffer":0,
			"byteLength":261708,
			"byteOffset":1173484,
			"target":34962
		},
		{
			"buffer":0,
			"byteLength":174472,
			"byteOffset":1435192,
			"target":34962
		},
		{
			"buffer":0,
			"byteLength":261708,
			"byteOffset":1609664,
			"target":34962
		},
		{
			"buffer":0,
			"byteLength":261708,
			"byteOffset":1871372,
			"target":34962
		},
		{
			"buffer":0,
			"byteLength":174472,
			"byteOffset":2133080,
			"target":34962
		},
		{
			"buffer":0,
			"byteLength":261708,
			"byteOffset":2307552,
			"target":34962
		},
		{
			"buffer":0,
			"byteLength":261708,
			"byteOffset":2569260,
			"target":34962
		},
		{
			"buffer":0,
			"byteLength":174472,
			"byteOffset":2830968,
			"target":34962
		},
		{
			"buffer":0,
			"byteLength":261708,
			"byteOffset":3005440,
			"target":34962
		},
		{
			"buffer":0,
			"byteLength":261708,
			"byteOffset":3267148,
			"target":34962
		},
		{
			"buffer":0,
			"byteLength":174472,
			"byteOffset":3528856,
			"target":34962
		},
		{
			"buffer":0,
			"byteLength":261708,
			"byteOffset":3703328,
			"target":34962
		},
		{
			"buffer":0,
			"byteLength":261708,
			"byteOffset":3965036,
			"target":34962
		},
		{
			"buffer":0,
			"byteLength":174472,
			"byteOffset":4226744,
			"target":34962
		},
		{
			"buffer":0,
			"byteLength":261708,
			"byteOffset":4401216,
			"target":34962
		},
		{
			"buffer":0,
			"byteLength":261708,
			"byteOffset":4662924,
			"target":34962
		},
		{
			"buffer":0,
			"byteLength":174472,
			"byteOffset":4924632,
			"target":34962
		},
		{
			"buffer":0,
			"byteLength":261708,
			"byteOffset":5099104,
			"target":34962
		},
		{
			"buffer":0,
			"byteLength":261708,
			"byteOffset":5360812,
			"target":34962
		},
		{
			"buffer":0,
			"byteLength":174472,
			"byteOffset":5622520,
			"target":34962
		},
		{
			"buffer":0,
			"byteLength":261708,
			"byteOffset":5796992,
			"target":34962
		},
		{
			"buffer":0,
			"byteLength":261708,
			"byteOffset":6058700,
			"target":34962
		},
		{
			"buffer":0,
			"byteLength":174472,
			"byteOffset":6320408,
			"target":34962
		},
		{
			"buffer":0,
			"byteLength":261708,
			"byteOffset":6494880,
			"target":34962
		},
		{
			"buffer":0,
			"byteLength":261708,
			"byteOffset":6756588,
			"target":34962
		},
		{
			"buffer":0,
			"byteLength":174472,
			"byteOffset":7018296,
			"target":34962
		},
		{
			"buffer":0,
			"byteLength":261708,
			"byteOffset":7192768,
			"target":34962
		},
		{
			"buffer":0,
			"byteLength":261708,
			"byteOffset":7454476,
			"target":34962
		},
		{
			"buffer":0,
			"byteLength":174472,
			"byteOffset":7716184,
			"target":34962
		},
		{
			"buffer":0,
			"byteLength":261708,
			"byteOffset":7890656,
			"target":34962
		},
		{
			"buffer":0,
			"byteLength":261708,
			"byteOffset":8152364,
			"target":34962
		},
		{
			"buffer":0,
			"byteLength":174472,
			"byteOffset":8414072,
			"target":34962
		}
	],
	"buffers":[
		{
			"byteLength":8588544,
			"uri":"ShaderBalls_furnace.bin"
		}
	]
}
